<?xml version="1.0" standalone="no"?><!DOCTYPE svg PUBLIC "-//W3C//DTD SVG 1.1//EN" "http://www.w3.org/Graphics/SVG/1.1/DTD/svg11.dtd"><svg t="1584863492128" class="icon" viewBox="0 0 1024 1024" version="1.1" xmlns="http://www.w3.org/2000/svg" p-id="2613" width="48" height="48" xmlns:xlink="http://www.w3.org/1999/xlink"><defs><style type="text/css"></style></defs><path d="M852.6 462.9l12.1 7.6c24.8 15.6 32.3 48.3 16.7 73.2-4.2 6.7-9.9 12.4-16.7 16.7L540.4 764.1c-17.3 10.8-39.2 10.8-56.4 0L159.3 560c-24.8-15.6-32.3-48.3-16.7-73.2 4.2-6.7 9.9-12.4 16.7-16.7l12.1-7.6L483.9 659c17.3 10.8 39.2 10.8 56.4 0l312.2-196 0.1-0.1z m0 156.1l12.1 7.6c24.8 15.6 32.3 48.3 16.7 73.2-4.2 6.7-9.9 12.4-16.7 16.7L540.4 920.2c-17.3 10.8-39.2 10.8-56.4 0L159.3 716.1c-24.8-15.6-32.3-48.3-16.7-73.2 4.2-6.7 9.9-12.4 16.7-16.7l12.1-7.6L483.9 815c17.3 10.8 39.2 10.8 56.4 0l312.2-196h0.1zM540 106.4l324.6 204.1c24.8 15.6 32.3 48.3 16.7 73.2-4.2 6.7-9.9 12.4-16.7 16.7L540.4 604c-17.3 10.8-39.2 10.8-56.4 0L159.3 399.8c-24.8-15.6-32.3-48.3-16.7-73.2 4.2-6.7 9.9-12.4 16.7-16.7l324.4-203.7c17.3-10.8 39.2-10.8 56.4 0l-0.1 0.2z" p-id="2614"></path></svg>